# AST/ASF file generated using VICON BodyLanguage
# -----------------------------------------------
:version 1.10
:name VICON
:units
  mass 1.0
  length 0.45
  angle deg
:documentation
   .ast/.asf automatically generated from VICON data using
   VICON BodyBuilder and BodyLanguage model FoxedUp or BRILLIANT.MOD
:root
   order TX TY TZ RX RY RZ
   axis XYZ
   position 0 0 0  
   orientation 0 0 0 
:bonedata
  begin
     id 1 
     name lhipjoint
     direction 0.570549 -0.739093 0.358072 
     length 2.41801 
     axis 0 0 0  XYZ
  end
  begin
     id 2 
     name lfemur
     direction 0.34202 -0.939693 0  
     length 7.44434  
     axis 0 0 20  XYZ
    dof rx ry rz
    limits (-160.0 20.0)
           (-70.0 70.0)
           (-60.0 70.0)
  end
  begin
     id 3 
     name ltibia
     direction 0.34202 -0.939693 0   
     length 7.60047   
     axis 0 0 20   XYZ
    dof rx
    limits (-10.0 170.0)
  end
  begin
     id 4 
     name lfoot
     direction 0.0909041 -0.249757 0.964032   
     length 2.03437   
     axis -90 7.62852e-016 20   XYZ
    dof rx rz
    limits (-45.0 90.0)
           (-70.0 20.0)
  end
  begin
     id 5 
     name ltoes
     direction 1.53547e-011 -4.2174e-011 1   
     length 1.02054   
     axis -90 7.62852e-016 20   XYZ
    dof rx
    limits (-90.0 20.0)
  end
  begin
     id 6 
     name rhipjoint
     direction -0.558096 -0.746754 0.361784   
     length 2.3932  
     axis 0 0 0  XYZ 
  end
  begin
     id 7 
     name rfemur
     direction -0.34202 -0.939693 0   
     length 7.3886   
     axis 0 0 -20   XYZ
    dof rx ry rz
    limits (-160.0 20.0)
           (-70.0 70.0)
           (-70.0 60.0)
  end
  begin
     id 8 
     name rtibia
     direction -0.34202 -0.939693 0   
     length 7.4839   
     axis 0 0 -20   XYZ
    dof rx
    limits (-10.0 170.0)
 end
 begin
     id 9 
     name rfoot
     direction -0.114619 -0.314914 0.942174   
     length 2.25127  
     axis -90 -7.62852e-016 -20   XYZ
    dof rx rz
    limits (-45.0 90.0)
           (-20.0 70.0)
  end
  begin
     id 10 
     name rtoes
     direction -1.53518e-011 -4.21881e-011 1   
     length 1.11821   
     axis -90 -7.62852e-016 -20   XYZ
    dof rx
    limits (-90.0 20.0)
  end
  begin
     id 11 
     name lowerback
     direction -0.00902269 0.996426 -0.0839821   
     length 2.25052   
     axis 0 0 0   XYZ
    dof rx ry rz
    limits (-20.0 45.0)
           (-30.0 30.0)
           (-30.0 30.0)
  end
  begin
     id 12 
     name upperback
     direction 0.0370973 0.999169 -0.0168941   
     length 2.24876   
     axis 0 0 0   XYZ
    dof rx ry rz
    limits (-20.0 45.0)
           (-30.0 30.0)
           (-30.0 30.0)
  end
  begin
     id 13 
     name thorax
     direction 0.0402726 0.998931 0.0227027   
     length 2.26408   
     axis 0 0 0   XYZ
    dof rx ry rz
    limits (-20.0 45.0)
           (-30.0 30.0)
           (-30.0 30.0)
  end
  begin
     id 14 
     name lowerneck
     direction -0.0733697 0.98508 0.155675   
     length 1.58204   
     axis 0 0 0   XYZ
    dof rx ry rz
    limits (-20.0 45.0)
           (-30.0 30.0)
           (-30.0 30.0)
  end
  begin
     id 15 
     name upperneck
     direction 0.0426554 0.993501 -0.105526   
     length 1.61222   
     axis 0 0 0   XYZ
    dof rx ry rz
    limits (-20.0 45.0)
           (-30.0 30.0)
           (-30.0 30.0)
  end
  begin
     id 16
     name head
     direction 0.020792 0.998384 -0.0528868  
     length 1.61527  
     axis 0 0 0   XYZ
    dof rx ry rz
    limits (-20.0 45.0)
           (-30.0 30.0)
           (-30.0 30.0)
  end
  begin
     id 17 
     name lclavicle
     direction 0.967109 0.155462 -0.201325  
     length 3.59357  
     axis 0 0 0   XYZ
    dof ry rz
    limits (-20.0 10.0)
           (0.0 20.0)
  end
  begin
     id 18 
     name lhumerus
     direction 1 -4.48968e-011 2.38195e-027   
     length 5.38154   
     axis 180 -30 -90   XYZ
    dof rx ry rz
    limits (-60.0 90.0)
           (-90.0 90.0)
           (-90.0 90.0)
  end
  begin
     id 19
     name lradius
     direction 1 -4.48961e-011 4.85371e-027   
     length 3.33312   
     axis 180 -30 -90   XYZ
    dof rx
    limits (-10.0 170.0)
  end
  begin
     id 20
     name lwrist
     direction 1 -4.48961e-011 4.76515e-027   
     length 1.66656   
     axis -3.27502e-015 90 90   XYZ
    dof ry
    limits (-180.0 0.0)
 end
  begin
     id 21 
     name lhand
     direction 1 -4.48951e-011 9.53074e-027   
     length 0.710789   
     axis -6.08098e-015 90 90   XYZ
    dof rx rz
    limits (-90.0 90.0)
           (-45.0 45.0)
  end
  begin
     id 22 
     name lfingers
     direction 1 -4.48953e-011 1.90613e-026   
     length 0.573057   
     axis -1.21619e-014 90 90   XYZ
    dof rx
    limits (0.0 90.0)
  end
  begin
     id 23
     name lthumb
     direction 0.707107 -6.34973e-011 0.707107   
     length 0.822798   
     axis -90 45 -9.86923e-015   XYZ
    dof rx rz
    limits (-45.0 45.0)
           (-45.0 45.0)
  end
  begin
     id 24 
     name rclavicle
     direction -0.9585 0.265289 -0.104398   
     length 3.42039  
     axis 0 0 0   XYZ 
    dof ry rz
    limits (-10.0 20.0)
           (-20.0 0.0)
  end
  begin
     id 25 
     name rhumerus
     direction -1 -4.48977e-011 2.21478e-027  
     length 5.16954   
     axis 180 30 90   XYZ
    dof rx ry rz
    limits (-90.0 60.0)
           (-90.0 90.0)
           (-90.0 90.0)
  end
  begin
     id 26 
     name rradius
     direction -1 -4.48967e-011 5.63677e-027   
     length 3.38287   
     axis 180 30 90   XYZ
    dof rx
    limits (-10.0 170.0)
  end
  begin
     id 27 
     name rwrist
     direction -1 -4.48967e-011 4.76501e-027   
     length 1.69144   
     axis -3.27502e-015 -90 -90   XYZ
    dof ry
    limits (-180.0 0.0)
  end
  begin
     id 28
     name rhand
     direction -1 -4.48902e-011 9.53292e-027   
     length 0.817967   
     axis -6.08098e-015 -90 -90   XYZ
    dof rx rz
    limits (-90.0 90.0)
           (-45.0 45.0)
  end
  begin
     id 29
     name rfingers
     direction -1 -4.49012e-011 1.90561e-026   
     length 0.659466   
     axis -1.21619e-014 -90 -90   XYZ
    dof rx
    limits (0.0 90.0)
  end
  begin
     id 30
     name rthumb
     direction -0.707107 -6.34944e-011 0.707107   
     length 0.946865   
     axis -90 -45 9.86923e-015   XYZ
    dof rx rz
    limits (-45.0 45.0)
           (-45.0 45.0)
  end
:hierarchy
  begin
    root lhipjoint rhipjoint lowerback
    lhipjoint lfemur
    lfemur ltibia
    ltibia lfoot
    lfoot ltoes
    rhipjoint rfemur
    rfemur rtibia
    rtibia rfoot
    rfoot rtoes
    lowerback upperback
    upperback thorax
    thorax lowerneck lclavicle rclavicle
    lowerneck upperneck
    upperneck head
    lclavicle lhumerus
    lhumerus lradius
    lradius lwrist
    lwrist lhand lthumb
    lhand lfingers
    rclavicle rhumerus
    rhumerus rradius
    rradius rwrist
    rwrist rhand rthumb
    rhand rfingers
  end

#!OML:ASF F:\twosubjects\two\wednesday\Session 1\Justin1.ASF
:FULLY-SPECIFIED
:DEGREES
116
root 4.76717 17.6003 3.97765 -175.922 4.47804 -171.769
lowerback -0.450038 1.55525 4.78908
upperback 1.7788 2.16018 3.48262
thorax 2.11924 1.22034 0.954265
lowerneck -18.2082 -3.75383 -10.7906
upperneck 20.3561 -3.41015 6.79968
head 9.77998 -1.53133 3.73122
rclavicle 3.72721e-016 1.25234e-014
rhumerus -26.6272 -2.64609 -84.1523
rradius 33.4296
rwrist -13.7086
rhand -13.0273 18.7112
rfingers 7.12502
rthumb 13.0669 -10.8595
lclavicle 3.72721e-016 1.25234e-014
lhumerus -37.926 11.7357 83.0007
lradius 33.9565
lwrist -7.69374
lhand 1.05169 37.0176
lfingers 7.12502
lthumb 26.5973 65.1697
rfemur 7.26092 4.58712 32.9965
rtibia 8.67393
rfoot -14.5374 -0.735472
rtoes 10.3641
lfemur -34.4261 -0.574254 -8.87867
ltibia 31.2619
lfoot -13.5337 1.09017
ltoes -20.4101
117
root 4.76595 17.5966 3.82401 -175.751 4.53053 -171.492
lowerback -0.656305 1.52538 4.98408
upperback 1.87241 2.11181 3.64011
thorax 2.33217 1.20986 1.01738
lowerneck -18.5785 -3.7857 -11.1187
upperneck 20.4043 -3.37312 6.97735
head 9.87167 -1.51971 3.85453
rclavicle 3.67752e-015 -5.96354e-015
rhumerus -26.2355 -2.2022 -84.2258
rradius 33.3871
rwrist -13.5796
rhand -13.0927 20.5726
rfingers 7.12502
rthumb 13.0039 -9.00215
lclavicle 3.67752e-015 -5.96354e-015
lhumerus -37.7197 12.2338 83.0449
lradius 33.608
lwrist -7.94052
lhand 0.848097 37.1501
lfingers 7.12502
lthumb 26.4025 65.3316
rfemur 9.03722 4.84344 33.3229
rtibia 5.9395
rfoot -13.5966 -0.945143
rtoes 9.8086
lfemur -34.6522 -1.33202 -8.13785
ltibia 29.4273
lfoot -13.7245 1.46222
ltoes -18.2986
118
root 4.76755 17.5805 3.6749 -175.463 4.60246 -171.131
lowerback -1.00487 1.63454 5.35101
upperback 1.89615 2.22768 3.6587
thorax 2.56923 1.28095 0.851077
lowerneck -18.4862 -3.87427 -11.0419
upperneck 20.0473 -3.54484 6.99981
head 9.74398 -1.59556 3.81636
rclavicle 6.01324e-015 1.8487e-014
rhumerus -25.9279 -2.1071 -84.4539
rradius 33.3426
rwrist -13.876
rhand -14.4815 18.5373
rfingers 7.12502
rthumb 11.6648 -11.118
lclavicle 6.01324e-015 1.8487e-014
lhumerus -37.5482 11.9119 83.0688
lradius 33.4046
lwrist -7.78331
lhand 1.08006 37.8553
lfingers 7.12502
lthumb 26.6245 66.0033
rfemur 12.2484 5.14238 33.7654
rtibia -5.725e-014
rfoot -11.0119 -1.07482
rtoes 8.56172
lfemur -34.9985 -2.08283 -7.25629
ltibia 27.9255
lfoot -13.9897 2.01696
ltoes -17.5918
119
root 4.766 17.5637 3.52668 -175.145 4.7398 -170.917
lowerback -1.0368 1.83962 5.75441
upperback 1.5388 2.49736 3.48092
thorax 2.25071 1.40685 0.444639
lowerneck -17.6918 -3.58383 -10.904
upperneck 19.6185 -3.90376 7.12646
head 9.46852 -1.97478 3.74554
rclavicle -1.82136e-014 -1.66979e-014
rhumerus -26.6175 -2.47674 -84.563
rradius 33.7159
rwrist -14.2374
rhand -14.3819 18.5268
rfingers 7.12502
rthumb 11.7609 -11.123
lclavicle -1.82136e-014 -1.66979e-014
lhumerus -37.9162 11.2184 82.8229
lradius 33.1516
lwrist -7.60947
lhand 1.37899 38.4566
lfingers 7.12502
lthumb 26.9105 66.5609
rfemur 12.4585 5.51542 33.9961
rtibia 3.49861e-014
rfoot -11.2129 -1.2419
rtoes 7.81456
lfemur -35.3984 -2.42331 -6.70405
ltibia 26.7519
lfoot -14.3246 2.53352
ltoes -18.4412
120
root 4.75826 17.5617 3.36945 -174.927 4.97032 -171.307
lowerback -0.916474 2.02681 5.46919
upperback 1.08845 2.75981 3.24853
thorax 1.72576 1.5063 0.352119
lowerneck -17.0112 -3.5611 -10.7208
upperneck 19.6313 -4.0106 7.02452
head 9.35176 -2.04691 3.66595
rclavicle 1.70085e-014 -4.40308e-014
rhumerus -27.4922 -2.76215 -84.4762
rradius 34.0296
rwrist -14.0942
rhand -13.599 19.3704
rfingers 7.12502
rthumb 12.5157 -10.2347
lclavicle 1.70085e-014 -4.40308e-014
lhumerus -38.4477 10.9542 82.5849
lradius 32.7433
lwrist -7.78029
lhand 1.33295 38.39
lfingers 7.12502
lthumb 26.8665 66.501
rfemur 12.8256 5.93166 33.5206
rtibia -2.8625e-014
rfoot -11.4108 -1.43218
rtoes 8.40058
lfemur -35.731 -2.48551 -6.96622
ltibia 25.8564
lfoot -14.8213 2.60342
ltoes -16.1614
121
root 4.74664 17.5529 3.20934 -174.744 5.22022 -171.63
lowerback -1.07493 2.12678 5.09235
upperback 0.985495 2.88083 3.19206
thorax 1.69737 1.5554 0.509758
lowerneck -17.1135 -3.53853 -10.7006
upperneck 19.8729 -3.96728 6.89773
head 9.44745 -2.04518 3.62622
rclavicle -8.12532e-015 1.45113e-014
rhumerus -27.4753 -2.8687 -84.3029
rradius 33.8594
rwrist -14.2425
rhand -13.2759 19.6145
rfingers 7.12502
rthumb 12.8272 -9.97143
lclavicle -8.12532e-015 1.45113e-014
lhumerus -38.5361 11.2568 82.5416
lradius 32.3278
lwrist -7.99165
lhand 0.944704 38.0097
lfingers 7.12502
lthumb 26.4949 66.1773
rfemur 13.2259 6.35975 33.1223
rtibia 4.13472e-014
rfoot -11.6213 -1.66567
rtoes 8.72761
lfemur -35.9718 -2.281 -7.3033
ltibia 25.1543
lfoot -15.376 2.4849
ltoes -13.5638
